solid front_fitcheck_preview
 facet normal 0 0 0
  outer loop
   vertex -69.0 19.5 0.0
   vertex -4.0 24.5 0.0
   vertex -4.0 19.5 0.0
  endloop
 endfacet
 facet normal 0 0 0
  outer loop
   vertex -69.0 19.5 0.0
   vertex -69.0 24.5 0.0
   vertex -4.0 24.5 0.0
  endloop
 endfacet
 facet normal 0 0 0
  outer loop
   vertex -69.0 19.5 6.0
   vertex -4.0 19.5 6.0
   vertex -4.0 24.5 6.0
  endloop
 endfacet
 facet normal 0 0 0
  outer loop
   vertex -69.0 19.5 6.0
   vertex -4.0 24.5 6.0
   vertex -69.0 24.5 6.0
  endloop
 endfacet
 facet normal 0 0 0
  outer loop
   vertex -69.0 19.5 0.0
   vertex -4.0 19.5 0.0
   vertex -4.0 19.5 6.0
  endloop
 endfacet
 facet normal 0 0 0
  outer loop
   vertex -69.0 19.5 0.0
   vertex -4.0 19.5 6.0
   vertex -69.0 19.5 6.0
  endloop
 endfacet
 facet normal 0 0 0
  outer loop
   vertex -4.0 19.5 0.0
   vertex -4.0 24.5 0.0
   vertex -4.0 24.5 6.0
  endloop
 endfacet
 facet normal 0 0 0
  outer loop
   vertex -4.0 19.5 0.0
   vertex -4.0 24.5 6.0
   vertex -4.0 19.5 6.0
  endloop
 endfacet
 facet normal 0 0 0
  outer loop
   vertex -4.0 24.5 0.0
   vertex -69.0 24.5 0.0
   vertex -69.0 24.5 6.0
  endloop
 endfacet
 facet normal 0 0 0
  outer loop
   vertex -4.0 24.5 0.0
   vertex -69.0 24.5 6.0
   vertex -4.0 24.5 6.0
  endloop
 endfacet
 facet normal 0 0 0
  outer loop
   vertex -69.0 24.5 0.0
   vertex -69.0 19.5 0.0
   vertex -69.0 19.5 6.0
  endloop
 endfacet
 facet normal 0 0 0
  outer loop
   vertex -69.0 24.5 0.0
   vertex -69.0 19.5 6.0
   vertex -69.0 24.5 6.0
  endloop
 endfacet
 facet normal 0 0 0
  outer loop
   vertex -69.0 -24.5 0.0
   vertex -4.0 -19.5 0.0
   vertex -4.0 -24.5 0.0
  endloop
 endfacet
 facet normal 0 0 0
  outer loop
   vertex -69.0 -24.5 0.0
   vertex -69.0 -19.5 0.0
   vertex -4.0 -19.5 0.0
  endloop
 endfacet
 facet normal 0 0 0
  outer loop
   vertex -69.0 -24.5 6.0
   vertex -4.0 -24.5 6.0
   vertex -4.0 -19.5 6.0
  endloop
 endfacet
 facet normal 0 0 0
  outer loop
   vertex -69.0 -24.5 6.0
   vertex -4.0 -19.5 6.0
   vertex -69.0 -19.5 6.0
  endloop
 endfacet
 facet normal 0 0 0
  outer loop
   vertex -69.0 -24.5 0.0
   vertex -4.0 -24.5 0.0
   vertex -4.0 -24.5 6.0
  endloop
 endfacet
 facet normal 0 0 0
  outer loop
   vertex -69.0 -24.5 0.0
   vertex -4.0 -24.5 6.0
   vertex -69.0 -24.5 6.0
  endloop
 endfacet
 facet normal 0 0 0
  outer loop
   vertex -4.0 -24.5 0.0
   vertex -4.0 -19.5 0.0
   vertex -4.0 -19.5 6.0
  endloop
 endfacet
 facet normal 0 0 0
  outer loop
   vertex -4.0 -24.5 0.0
   vertex -4.0 -19.5 6.0
   vertex -4.0 -24.5 6.0
  endloop
 endfacet
 facet normal 0 0 0
  outer loop
   vertex -4.0 -19.5 0.0
   vertex -69.0 -19.5 0.0
   vertex -69.0 -19.5 6.0
  endloop
 endfacet
 facet normal 0 0 0
  outer loop
   vertex -4.0 -19.5 0.0
   vertex -69.0 -19.5 6.0
   vertex -4.0 -19.5 6.0
  endloop
 endfacet
 facet normal 0 0 0
  outer loop
   vertex -69.0 -19.5 0.0
   vertex -69.0 -24.5 0.0
   vertex -69.0 -24.5 6.0
  endloop
 endfacet
 facet normal 0 0 0
  outer loop
   vertex -69.0 -19.5 0.0
   vertex -69.0 -24.5 6.0
   vertex -69.0 -19.5 6.0
  endloop
 endfacet
 facet normal 0 0 0
  outer loop
   vertex -69.0 -19.5 0.0
   vertex -64.0 19.5 0.0
   vertex -64.0 -19.5 0.0
  endloop
 endfacet
 facet normal 0 0 0
  outer loop
   vertex -69.0 -19.5 0.0
   vertex -69.0 19.5 0.0
   vertex -64.0 19.5 0.0
  endloop
 endfacet
 facet normal 0 0 0
  outer loop
   vertex -69.0 -19.5 6.0
   vertex -64.0 -19.5 6.0
   vertex -64.0 19.5 6.0
  endloop
 endfacet
 facet normal 0 0 0
  outer loop
   vertex -69.0 -19.5 6.0
   vertex -64.0 19.5 6.0
   vertex -69.0 19.5 6.0
  endloop
 endfacet
 facet normal 0 0 0
  outer loop
   vertex -69.0 -19.5 0.0
   vertex -64.0 -19.5 0.0
   vertex -64.0 -19.5 6.0
  endloop
 endfacet
 facet normal 0 0 0
  outer loop
   vertex -69.0 -19.5 0.0
   vertex -64.0 -19.5 6.0
   vertex -69.0 -19.5 6.0
  endloop
 endfacet
 facet normal 0 0 0
  outer loop
   vertex -64.0 -19.5 0.0
   vertex -64.0 19.5 0.0
   vertex -64.0 19.5 6.0
  endloop
 endfacet
 facet normal 0 0 0
  outer loop
   vertex -64.0 -19.5 0.0
   vertex -64.0 19.5 6.0
   vertex -64.0 -19.5 6.0
  endloop
 endfacet
 facet normal 0 0 0
  outer loop
   vertex -64.0 19.5 0.0
   vertex -69.0 19.5 0.0
   vertex -69.0 19.5 6.0
  endloop
 endfacet
 facet normal 0 0 0
  outer loop
   vertex -64.0 19.5 0.0
   vertex -69.0 19.5 6.0
   vertex -64.0 19.5 6.0
  endloop
 endfacet
 facet normal 0 0 0
  outer loop
   vertex -69.0 19.5 0.0
   vertex -69.0 -19.5 0.0
   vertex -69.0 -19.5 6.0
  endloop
 endfacet
 facet normal 0 0 0
  outer loop
   vertex -69.0 19.5 0.0
   vertex -69.0 -19.5 6.0
   vertex -69.0 19.5 6.0
  endloop
 endfacet
 facet normal 0 0 0
  outer loop
   vertex -9.0 -19.5 0.0
   vertex -4.0 19.5 0.0
   vertex -4.0 -19.5 0.0
  endloop
 endfacet
 facet normal 0 0 0
  outer loop
   vertex -9.0 -19.5 0.0
   vertex -9.0 19.5 0.0
   vertex -4.0 19.5 0.0
  endloop
 endfacet
 facet normal 0 0 0
  outer loop
   vertex -9.0 -19.5 6.0
   vertex -4.0 -19.5 6.0
   vertex -4.0 19.5 6.0
  endloop
 endfacet
 facet normal 0 0 0
  outer loop
   vertex -9.0 -19.5 6.0
   vertex -4.0 19.5 6.0
   vertex -9.0 19.5 6.0
  endloop
 endfacet
 facet normal 0 0 0
  outer loop
   vertex -9.0 -19.5 0.0
   vertex -4.0 -19.5 0.0
   vertex -4.0 -19.5 6.0
  endloop
 endfacet
 facet normal 0 0 0
  outer loop
   vertex -9.0 -19.5 0.0
   vertex -4.0 -19.5 6.0
   vertex -9.0 -19.5 6.0
  endloop
 endfacet
 facet normal 0 0 0
  outer loop
   vertex -4.0 -19.5 0.0
   vertex -4.0 19.5 0.0
   vertex -4.0 19.5 6.0
  endloop
 endfacet
 facet normal 0 0 0
  outer loop
   vertex -4.0 -19.5 0.0
   vertex -4.0 19.5 6.0
   vertex -4.0 -19.5 6.0
  endloop
 endfacet
 facet normal 0 0 0
  outer loop
   vertex -4.0 19.5 0.0
   vertex -9.0 19.5 0.0
   vertex -9.0 19.5 6.0
  endloop
 endfacet
 facet normal 0 0 0
  outer loop
   vertex -4.0 19.5 0.0
   vertex -9.0 19.5 6.0
   vertex -4.0 19.5 6.0
  endloop
 endfacet
 facet normal 0 0 0
  outer loop
   vertex -9.0 19.5 0.0
   vertex -9.0 -19.5 0.0
   vertex -9.0 -19.5 6.0
  endloop
 endfacet
 facet normal 0 0 0
  outer loop
   vertex -9.0 19.5 0.0
   vertex -9.0 -19.5 6.0
   vertex -9.0 19.5 6.0
  endloop
 endfacet
 facet normal 0 0 0
  outer loop
   vertex 4.0 19.5 0.0
   vertex 69.0 24.5 0.0
   vertex 69.0 19.5 0.0
  endloop
 endfacet
 facet normal 0 0 0
  outer loop
   vertex 4.0 19.5 0.0
   vertex 4.0 24.5 0.0
   vertex 69.0 24.5 0.0
  endloop
 endfacet
 facet normal 0 0 0
  outer loop
   vertex 4.0 19.5 6.0
   vertex 69.0 19.5 6.0
   vertex 69.0 24.5 6.0
  endloop
 endfacet
 facet normal 0 0 0
  outer loop
   vertex 4.0 19.5 6.0
   vertex 69.0 24.5 6.0
   vertex 4.0 24.5 6.0
  endloop
 endfacet
 facet normal 0 0 0
  outer loop
   vertex 4.0 19.5 0.0
   vertex 69.0 19.5 0.0
   vertex 69.0 19.5 6.0
  endloop
 endfacet
 facet normal 0 0 0
  outer loop
   vertex 4.0 19.5 0.0
   vertex 69.0 19.5 6.0
   vertex 4.0 19.5 6.0
  endloop
 endfacet
 facet normal 0 0 0
  outer loop
   vertex 69.0 19.5 0.0
   vertex 69.0 24.5 0.0
   vertex 69.0 24.5 6.0
  endloop
 endfacet
 facet normal 0 0 0
  outer loop
   vertex 69.0 19.5 0.0
   vertex 69.0 24.5 6.0
   vertex 69.0 19.5 6.0
  endloop
 endfacet
 facet normal 0 0 0
  outer loop
   vertex 69.0 24.5 0.0
   vertex 4.0 24.5 0.0
   vertex 4.0 24.5 6.0
  endloop
 endfacet
 facet normal 0 0 0
  outer loop
   vertex 69.0 24.5 0.0
   vertex 4.0 24.5 6.0
   vertex 69.0 24.5 6.0
  endloop
 endfacet
 facet normal 0 0 0
  outer loop
   vertex 4.0 24.5 0.0
   vertex 4.0 19.5 0.0
   vertex 4.0 19.5 6.0
  endloop
 endfacet
 facet normal 0 0 0
  outer loop
   vertex 4.0 24.5 0.0
   vertex 4.0 19.5 6.0
   vertex 4.0 24.5 6.0
  endloop
 endfacet
 facet normal 0 0 0
  outer loop
   vertex 4.0 -24.5 0.0
   vertex 69.0 -19.5 0.0
   vertex 69.0 -24.5 0.0
  endloop
 endfacet
 facet normal 0 0 0
  outer loop
   vertex 4.0 -24.5 0.0
   vertex 4.0 -19.5 0.0
   vertex 69.0 -19.5 0.0
  endloop
 endfacet
 facet normal 0 0 0
  outer loop
   vertex 4.0 -24.5 6.0
   vertex 69.0 -24.5 6.0
   vertex 69.0 -19.5 6.0
  endloop
 endfacet
 facet normal 0 0 0
  outer loop
   vertex 4.0 -24.5 6.0
   vertex 69.0 -19.5 6.0
   vertex 4.0 -19.5 6.0
  endloop
 endfacet
 facet normal 0 0 0
  outer loop
   vertex 4.0 -24.5 0.0
   vertex 69.0 -24.5 0.0
   vertex 69.0 -24.5 6.0
  endloop
 endfacet
 facet normal 0 0 0
  outer loop
   vertex 4.0 -24.5 0.0
   vertex 69.0 -24.5 6.0
   vertex 4.0 -24.5 6.0
  endloop
 endfacet
 facet normal 0 0 0
  outer loop
   vertex 69.0 -24.5 0.0
   vertex 69.0 -19.5 0.0
   vertex 69.0 -19.5 6.0
  endloop
 endfacet
 facet normal 0 0 0
  outer loop
   vertex 69.0 -24.5 0.0
   vertex 69.0 -19.5 6.0
   vertex 69.0 -24.5 6.0
  endloop
 endfacet
 facet normal 0 0 0
  outer loop
   vertex 69.0 -19.5 0.0
   vertex 4.0 -19.5 0.0
   vertex 4.0 -19.5 6.0
  endloop
 endfacet
 facet normal 0 0 0
  outer loop
   vertex 69.0 -19.5 0.0
   vertex 4.0 -19.5 6.0
   vertex 69.0 -19.5 6.0
  endloop
 endfacet
 facet normal 0 0 0
  outer loop
   vertex 4.0 -19.5 0.0
   vertex 4.0 -24.5 0.0
   vertex 4.0 -24.5 6.0
  endloop
 endfacet
 facet normal 0 0 0
  outer loop
   vertex 4.0 -19.5 0.0
   vertex 4.0 -24.5 6.0
   vertex 4.0 -19.5 6.0
  endloop
 endfacet
 facet normal 0 0 0
  outer loop
   vertex 4.0 -19.5 0.0
   vertex 9.0 19.5 0.0
   vertex 9.0 -19.5 0.0
  endloop
 endfacet
 facet normal 0 0 0
  outer loop
   vertex 4.0 -19.5 0.0
   vertex 4.0 19.5 0.0
   vertex 9.0 19.5 0.0
  endloop
 endfacet
 facet normal 0 0 0
  outer loop
   vertex 4.0 -19.5 6.0
   vertex 9.0 -19.5 6.0
   vertex 9.0 19.5 6.0
  endloop
 endfacet
 facet normal 0 0 0
  outer loop
   vertex 4.0 -19.5 6.0
   vertex 9.0 19.5 6.0
   vertex 4.0 19.5 6.0
  endloop
 endfacet
 facet normal 0 0 0
  outer loop
   vertex 4.0 -19.5 0.0
   vertex 9.0 -19.5 0.0
   vertex 9.0 -19.5 6.0
  endloop
 endfacet
 facet normal 0 0 0
  outer loop
   vertex 4.0 -19.5 0.0
   vertex 9.0 -19.5 6.0
   vertex 4.0 -19.5 6.0
  endloop
 endfacet
 facet normal 0 0 0
  outer loop
   vertex 9.0 -19.5 0.0
   vertex 9.0 19.5 0.0
   vertex 9.0 19.5 6.0
  endloop
 endfacet
 facet normal 0 0 0
  outer loop
   vertex 9.0 -19.5 0.0
   vertex 9.0 19.5 6.0
   vertex 9.0 -19.5 6.0
  endloop
 endfacet
 facet normal 0 0 0
  outer loop
   vertex 9.0 19.5 0.0
   vertex 4.0 19.5 0.0
   vertex 4.0 19.5 6.0
  endloop
 endfacet
 facet normal 0 0 0
  outer loop
   vertex 9.0 19.5 0.0
   vertex 4.0 19.5 6.0
   vertex 9.0 19.5 6.0
  endloop
 endfacet
 facet normal 0 0 0
  outer loop
   vertex 4.0 19.5 0.0
   vertex 4.0 -19.5 0.0
   vertex 4.0 -19.5 6.0
  endloop
 endfacet
 facet normal 0 0 0
  outer loop
   vertex 4.0 19.5 0.0
   vertex 4.0 -19.5 6.0
   vertex 4.0 19.5 6.0
  endloop
 endfacet
 facet normal 0 0 0
  outer loop
   vertex 64.0 -19.5 0.0
   vertex 69.0 19.5 0.0
   vertex 69.0 -19.5 0.0
  endloop
 endfacet
 facet normal 0 0 0
  outer loop
   vertex 64.0 -19.5 0.0
   vertex 64.0 19.5 0.0
   vertex 69.0 19.5 0.0
  endloop
 endfacet
 facet normal 0 0 0
  outer loop
   vertex 64.0 -19.5 6.0
   vertex 69.0 -19.5 6.0
   vertex 69.0 19.5 6.0
  endloop
 endfacet
 facet normal 0 0 0
  outer loop
   vertex 64.0 -19.5 6.0
   vertex 69.0 19.5 6.0
   vertex 64.0 19.5 6.0
  endloop
 endfacet
 facet normal 0 0 0
  outer loop
   vertex 64.0 -19.5 0.0
   vertex 69.0 -19.5 0.0
   vertex 69.0 -19.5 6.0
  endloop
 endfacet
 facet normal 0 0 0
  outer loop
   vertex 64.0 -19.5 0.0
   vertex 69.0 -19.5 6.0
   vertex 64.0 -19.5 6.0
  endloop
 endfacet
 facet normal 0 0 0
  outer loop
   vertex 69.0 -19.5 0.0
   vertex 69.0 19.5 0.0
   vertex 69.0 19.5 6.0
  endloop
 endfacet
 facet normal 0 0 0
  outer loop
   vertex 69.0 -19.5 0.0
   vertex 69.0 19.5 6.0
   vertex 69.0 -19.5 6.0
  endloop
 endfacet
 facet normal 0 0 0
  outer loop
   vertex 69.0 19.5 0.0
   vertex 64.0 19.5 0.0
   vertex 64.0 19.5 6.0
  endloop
 endfacet
 facet normal 0 0 0
  outer loop
   vertex 69.0 19.5 0.0
   vertex 64.0 19.5 6.0
   vertex 69.0 19.5 6.0
  endloop
 endfacet
 facet normal 0 0 0
  outer loop
   vertex 64.0 19.5 0.0
   vertex 64.0 -19.5 0.0
   vertex 64.0 -19.5 6.0
  endloop
 endfacet
 facet normal 0 0 0
  outer loop
   vertex 64.0 19.5 0.0
   vertex 64.0 -19.5 6.0
   vertex 64.0 19.5 6.0
  endloop
 endfacet
 facet normal 0 0 0
  outer loop
   vertex -12.0 1.0 0.0
   vertex 12.0 9.0 0.0
   vertex 12.0 1.0 0.0
  endloop
 endfacet
 facet normal 0 0 0
  outer loop
   vertex -12.0 1.0 0.0
   vertex -12.0 9.0 0.0
   vertex 12.0 9.0 0.0
  endloop
 endfacet
 facet normal 0 0 0
  outer loop
   vertex -12.0 1.0 6.0
   vertex 12.0 1.0 6.0
   vertex 12.0 9.0 6.0
  endloop
 endfacet
 facet normal 0 0 0
  outer loop
   vertex -12.0 1.0 6.0
   vertex 12.0 9.0 6.0
   vertex -12.0 9.0 6.0
  endloop
 endfacet
 facet normal 0 0 0
  outer loop
   vertex -12.0 1.0 0.0
   vertex 12.0 1.0 0.0
   vertex 12.0 1.0 6.0
  endloop
 endfacet
 facet normal 0 0 0
  outer loop
   vertex -12.0 1.0 0.0
   vertex 12.0 1.0 6.0
   vertex -12.0 1.0 6.0
  endloop
 endfacet
 facet normal 0 0 0
  outer loop
   vertex 12.0 1.0 0.0
   vertex 12.0 9.0 0.0
   vertex 12.0 9.0 6.0
  endloop
 endfacet
 facet normal 0 0 0
  outer loop
   vertex 12.0 1.0 0.0
   vertex 12.0 9.0 6.0
   vertex 12.0 1.0 6.0
  endloop
 endfacet
 facet normal 0 0 0
  outer loop
   vertex 12.0 9.0 0.0
   vertex -12.0 9.0 0.0
   vertex -12.0 9.0 6.0
  endloop
 endfacet
 facet normal 0 0 0
  outer loop
   vertex 12.0 9.0 0.0
   vertex -12.0 9.0 6.0
   vertex 12.0 9.0 6.0
  endloop
 endfacet
 facet normal 0 0 0
  outer loop
   vertex -12.0 9.0 0.0
   vertex -12.0 1.0 0.0
   vertex -12.0 1.0 6.0
  endloop
 endfacet
 facet normal 0 0 0
  outer loop
   vertex -12.0 9.0 0.0
   vertex -12.0 1.0 6.0
   vertex -12.0 9.0 6.0
  endloop
 endfacet
endsolid front_fitcheck_preview
