solid right_temple_volume_preview
 facet normal 0 0 0
  outer loop
   vertex 0.0 -2.5 0.0
   vertex 145.0 2.5 0.0
   vertex 145.0 -2.5 0.0
  endloop
 endfacet
 facet normal 0 0 0
  outer loop
   vertex 0.0 -2.5 0.0
   vertex 0.0 2.5 0.0
   vertex 145.0 2.5 0.0
  endloop
 endfacet
 facet normal 0 0 0
  outer loop
   vertex 0.0 -2.5 9.0
   vertex 145.0 -2.5 9.0
   vertex 145.0 2.5 9.0
  endloop
 endfacet
 facet normal 0 0 0
  outer loop
   vertex 0.0 -2.5 9.0
   vertex 145.0 2.5 9.0
   vertex 0.0 2.5 9.0
  endloop
 endfacet
 facet normal 0 0 0
  outer loop
   vertex 0.0 -2.5 0.0
   vertex 145.0 -2.5 0.0
   vertex 145.0 -2.5 9.0
  endloop
 endfacet
 facet normal 0 0 0
  outer loop
   vertex 0.0 -2.5 0.0
   vertex 145.0 -2.5 9.0
   vertex 0.0 -2.5 9.0
  endloop
 endfacet
 facet normal 0 0 0
  outer loop
   vertex 145.0 -2.5 0.0
   vertex 145.0 2.5 0.0
   vertex 145.0 2.5 9.0
  endloop
 endfacet
 facet normal 0 0 0
  outer loop
   vertex 145.0 -2.5 0.0
   vertex 145.0 2.5 9.0
   vertex 145.0 -2.5 9.0
  endloop
 endfacet
 facet normal 0 0 0
  outer loop
   vertex 145.0 2.5 0.0
   vertex 0.0 2.5 0.0
   vertex 0.0 2.5 9.0
  endloop
 endfacet
 facet normal 0 0 0
  outer loop
   vertex 145.0 2.5 0.0
   vertex 0.0 2.5 9.0
   vertex 145.0 2.5 9.0
  endloop
 endfacet
 facet normal 0 0 0
  outer loop
   vertex 0.0 2.5 0.0
   vertex 0.0 -2.5 0.0
   vertex 0.0 -2.5 9.0
  endloop
 endfacet
 facet normal 0 0 0
  outer loop
   vertex 0.0 2.5 0.0
   vertex 0.0 -2.5 9.0
   vertex 0.0 2.5 9.0
  endloop
 endfacet
 facet normal 0 0 0
  outer loop
   vertex 35.0 -5.0 -3.0
   vertex 80.0 5.0 -3.0
   vertex 80.0 -5.0 -3.0
  endloop
 endfacet
 facet normal 0 0 0
  outer loop
   vertex 35.0 -5.0 -3.0
   vertex 35.0 5.0 -3.0
   vertex 80.0 5.0 -3.0
  endloop
 endfacet
 facet normal 0 0 0
  outer loop
   vertex 35.0 -5.0 12.0
   vertex 80.0 -5.0 12.0
   vertex 80.0 5.0 12.0
  endloop
 endfacet
 facet normal 0 0 0
  outer loop
   vertex 35.0 -5.0 12.0
   vertex 80.0 5.0 12.0
   vertex 35.0 5.0 12.0
  endloop
 endfacet
 facet normal 0 0 0
  outer loop
   vertex 35.0 -5.0 -3.0
   vertex 80.0 -5.0 -3.0
   vertex 80.0 -5.0 12.0
  endloop
 endfacet
 facet normal 0 0 0
  outer loop
   vertex 35.0 -5.0 -3.0
   vertex 80.0 -5.0 12.0
   vertex 35.0 -5.0 12.0
  endloop
 endfacet
 facet normal 0 0 0
  outer loop
   vertex 80.0 -5.0 -3.0
   vertex 80.0 5.0 -3.0
   vertex 80.0 5.0 12.0
  endloop
 endfacet
 facet normal 0 0 0
  outer loop
   vertex 80.0 -5.0 -3.0
   vertex 80.0 5.0 12.0
   vertex 80.0 -5.0 12.0
  endloop
 endfacet
 facet normal 0 0 0
  outer loop
   vertex 80.0 5.0 -3.0
   vertex 35.0 5.0 -3.0
   vertex 35.0 5.0 12.0
  endloop
 endfacet
 facet normal 0 0 0
  outer loop
   vertex 80.0 5.0 -3.0
   vertex 35.0 5.0 12.0
   vertex 80.0 5.0 12.0
  endloop
 endfacet
 facet normal 0 0 0
  outer loop
   vertex 35.0 5.0 -3.0
   vertex 35.0 -5.0 -3.0
   vertex 35.0 -5.0 12.0
  endloop
 endfacet
 facet normal 0 0 0
  outer loop
   vertex 35.0 5.0 -3.0
   vertex 35.0 -5.0 12.0
   vertex 35.0 5.0 12.0
  endloop
 endfacet
endsolid right_temple_volume_preview
